<?xml version="1.0" standalone="no"?>
<!DOCTYPE svg PUBLIC "-//W3C//DTD SVG 20010904//EN"
 "http://www.w3.org/TR/2001/REC-SVG-20010904/DTD/svg10.dtd">
<svg version="1.0" xmlns="http://www.w3.org/2000/svg"
 width="700.000000pt" height="700.000000pt" viewBox="0 0 700.000000 700.000000"
 preserveAspectRatio="xMidYMid meet">
<metadata>
Created by potrace 1.14, written by Peter Selinger 2001-2017
</metadata>
<g transform="translate(0.000000,700.000000) scale(0.100000,-0.100000)"
fill="#000000" stroke="none">
<path d="M2946 6322 c-4 -4 -215 -8 -469 -8 -561 -2 -668 -8 -857 -54 -121
-29 -184 -54 -320 -126 -100 -53 -269 -197 -335 -286 -15 -21 -32 -35 -38 -31
-6 3 -7 1 -3 -5 9 -14 -58 -115 -69 -104 -5 4 -5 2 -1 -5 4 -7 -9 -43 -28 -81
-36 -72 -83 -204 -92 -262 -3 -19 -11 -38 -18 -42 -8 -6 -7 -8 2 -8 7 0 11 -4
8 -8 -19 -31 -37 -244 -39 -469 -1 -72 -5 -119 -11 -116 -5 4 -6 1 0 -8 12
-19 11 -89 -1 -89 -7 0 -7 -3 0 -8 6 -4 10 -29 10 -57 0 -27 -4 -53 -10 -57
-7 -5 -7 -8 0 -8 14 0 14 -110 0 -110 -7 0 -7 -3 0 -8 6 -4 10 -29 10 -57 0
-27 -4 -53 -10 -57 -7 -5 -7 -8 0 -8 14 0 14 -110 0 -110 -7 0 -7 -3 0 -8 6
-4 10 -29 10 -57 0 -27 -4 -53 -10 -57 -7 -5 -7 -8 0 -8 14 0 14 -110 0 -110
-7 0 -7 -3 0 -8 13 -10 14 -135 1 -144 -7 -5 -7 -8 -1 -8 14 0 15 -70 1 -70
-7 0 -7 -3 -1 -8 14 -10 15 -65 1 -74 -6 -4 -6 -8 -1 -8 14 0 15 -70 1 -70 -7
0 -7 -3 -1 -8 14 -10 15 -65 1 -74 -6 -4 -6 -8 -1 -8 14 0 15 -70 1 -70 -7 0
-7 -3 -1 -8 15 -10 16 -72 2 -72 -8 0 -8 -3 -2 -8 14 -10 15 -65 1 -74 -6 -4
-6 -8 -1 -8 6 0 11 -16 12 -35 1 -24 -2 -33 -9 -29 -7 5 -8 2 -2 -7 12 -20 12
-89 -1 -89 -7 0 -7 -3 0 -8 6 -4 10 -29 10 -57 0 -27 -4 -53 -10 -57 -7 -5 -7
-8 0 -8 14 0 14 -110 0 -110 -7 0 -7 -3 0 -8 6 -4 10 -29 10 -57 0 -27 -4 -53
-10 -57 -7 -5 -6 -8 1 -8 13 0 13 -102 -1 -112 -6 -5 -4 -8 5 -8 13 0 13 -1 0
-10 -8 -5 -10 -10 -3 -10 12 0 12 -17 0 -36 -3 -6 -3 -14 1 -18 11 -12 9 -76
-3 -76 -7 0 -7 -3 0 -8 6 -4 10 -29 10 -57 0 -27 -4 -53 -10 -57 -7 -5 -6 -8
1 -8 13 0 14 -53 0 -62 -8 -5 -7 -8 1 -8 15 0 14 -89 -1 -109 -8 -11 -8 -13 2
-7 9 5 12 -6 12 -46 1 -78 9 -178 16 -189 3 -5 -1 -9 -8 -9 -9 0 -10 -3 -2 -8
6 -4 14 -29 18 -57 8 -64 14 -101 27 -148 5 -20 7 -43 3 -49 -5 -7 -3 -8 5 -4
8 5 11 3 10 -5 -1 -8 6 -34 17 -59 10 -25 18 -48 16 -52 -1 -5 3 -8 8 -8 6 0
10 -5 10 -11 0 -6 14 -38 30 -71 17 -33 27 -64 24 -70 -4 -7 -2 -8 4 -4 13 8
45 -47 34 -59 -4 -5 -2 -5 4 -2 7 4 23 -11 39 -35 15 -23 37 -51 49 -63 11
-12 38 -40 58 -61 20 -21 51 -50 68 -64 17 -14 36 -30 43 -36 7 -6 23 -16 35
-23 12 -7 20 -16 17 -21 -4 -6 2 -7 12 -3 10 3 15 2 10 -2 -4 -5 7 -14 25 -20
18 -6 32 -15 31 -21 -1 -5 8 -11 20 -11 12 -1 23 -7 25 -13 2 -5 9 -10 17 -10
7 0 39 -12 71 -27 33 -15 65 -28 72 -29 8 -1 21 -6 30 -10 9 -4 22 -8 27 -9 6
-2 30 -8 54 -15 39 -10 74 -17 104 -19 5 -1 5 -7 1 -13 -5 -9 -4 -10 5 -3 14
14 83 7 75 -7 -4 -6 2 -6 13 1 11 6 23 8 26 4 4 -3 52 -7 109 -10 57 -2 109
-10 117 -16 12 -9 13 -9 7 1 -4 7 -1 12 9 12 10 0 13 -5 9 -12 -5 -9 -2 -9 9
1 14 11 17 11 17 0 0 -9 3 -10 8 -4 10 14 112 14 105 0 -3 -5 0 -5 7 2 9 9 19
9 33 2 14 -8 18 -8 13 0 -4 6 -3 11 3 11 5 0 13 -5 16 -10 4 -6 12 -7 18 -3
18 11 107 10 107 -2 0 -5 4 -4 9 3 12 20 16 19 42 -3 16 -13 19 -14 11 -3 -12
15 -11 17 7 15 12 -1 21 -6 21 -12 0 -5 4 -4 9 4 6 9 10 10 16 2 5 -9 10 -9
20 -1 9 8 15 8 20 0 3 -6 12 -7 18 -3 17 11 61 10 69 -2 5 -6 8 -4 8 5 0 13 1
13 10 0 8 -12 10 -12 10 -1 0 11 5 9 22 -5 19 -15 20 -16 9 -1 -8 10 -9 17 -3
17 6 0 14 -5 17 -10 5 -8 11 -8 20 0 9 8 15 8 20 0 3 -6 12 -7 18 -3 18 11
107 10 107 -2 0 -5 4 -4 9 3 12 20 16 19 42 -3 16 -13 19 -14 11 -3 -12 15
-11 17 7 15 12 -1 21 -6 21 -12 0 -5 4 -4 9 4 6 9 10 10 16 2 5 -9 10 -9 20
-1 9 8 15 8 20 0 3 -6 12 -7 18 -3 17 11 61 10 69 -2 5 -6 8 -4 8 5 0 13 1 13
10 0 8 -12 10 -12 10 -1 0 11 5 9 22 -5 19 -15 20 -16 9 -1 -8 10 -9 17 -3 17
6 0 14 -5 17 -10 5 -8 11 -8 20 0 9 8 15 8 20 0 3 -6 12 -7 18 -3 18 11 107
10 107 -2 0 -5 4 -4 9 3 10 17 20 15 46 -6 18 -16 19 -16 7 0 -12 15 -11 17 7
15 12 -1 21 -6 21 -12 0 -5 4 -4 9 4 6 9 10 10 16 2 5 -9 10 -9 20 -1 9 8 15
8 20 0 3 -6 12 -7 18 -3 17 11 61 10 69 -2 5 -6 8 -4 8 5 0 13 1 13 10 0 8
-12 10 -12 10 -1 0 11 5 9 22 -5 19 -15 20 -16 9 -2 -8 11 -9 18 -3 18 6 0 14
-5 17 -10 5 -8 11 -8 20 0 10 8 15 8 20 0 4 -6 12 -7 18 -2 14 10 47 10 64 -1
6 -4 15 -2 19 4 4 8 9 7 15 -2 7 -12 9 -12 9 0 0 10 3 11 14 2 10 -9 16 -9 21
-1 5 8 11 8 21 -1 11 -9 14 -9 14 1 0 9 3 10 13 1 10 -8 17 -7 25 1 9 9 12 9
12 0 0 -9 5 -10 19 -2 14 7 22 7 26 0 5 -8 11 -7 21 1 11 9 14 8 14 -2 0 -9 3
-10 8 -3 9 13 94 13 104 -1 5 -6 8 -5 8 4 0 10 3 11 14 2 10 -9 16 -9 21 -1 5
8 11 8 21 -1 11 -9 14 -9 14 1 0 9 3 10 13 1 10 -8 17 -7 25 1 9 9 12 9 12 0
0 -9 5 -10 19 -2 14 7 22 7 26 0 5 -8 11 -7 21 1 11 9 14 8 14 -2 0 -9 3 -10
8 -3 9 13 94 13 104 -1 5 -6 8 -5 8 4 0 10 3 11 14 2 10 -9 16 -9 21 -1 5 8
11 8 21 -1 11 -9 14 -9 14 1 0 9 3 10 13 1 10 -8 17 -7 25 1 9 9 12 9 12 0 0
-9 5 -10 19 -2 14 7 22 7 26 0 5 -8 11 -7 21 1 11 9 14 8 14 -2 0 -9 3 -10 8
-4 10 14 123 15 115 1 -4 -6 1 -5 11 3 15 13 19 13 27 0 6 -10 9 -10 9 -2 0
14 26 13 49 -1 10 -6 12 -5 7 2 -5 9 15 12 71 13 43 0 87 2 98 3 11 2 52 7 90
11 102 11 109 11 125 17 8 3 38 10 65 16 28 6 59 14 69 18 13 5 17 4 12 -4 -3
-6 -2 -14 4 -17 6 -4 10 -3 9 2 -3 17 1 36 7 30 3 -3 26 3 51 14 25 10 50 16
56 12 7 -3 9 -3 5 2 -4 4 3 14 17 21 98 51 151 79 155 84 3 3 18 14 35 24 38
25 52 36 77 64 12 12 27 22 34 22 6 0 15 7 18 16 3 9 11 12 18 8 7 -4 10 -4 6
1 -9 9 52 81 65 77 5 -1 6 2 3 7 -4 5 5 18 19 30 15 11 26 23 25 28 0 4 5 15
12 24 7 8 21 29 30 45 10 16 22 28 27 27 5 -1 8 3 8 10 -1 35 4 49 16 44 9 -3
13 2 12 16 -2 12 6 31 16 42 17 19 19 23 19 46 0 5 4 8 9 5 5 -4 7 2 4 12 -5
21 21 75 32 64 5 -4 5 -1 1 5 -4 7 -2 32 5 55 6 24 13 53 15 66 2 12 6 34 9
50 3 15 8 43 11 62 3 19 7 46 10 60 2 14 7 81 10 150 6 97 11 128 23 138 15
11 15 12 0 6 -14 -4 -16 5 -15 68 1 40 5 78 9 85 4 6 3 14 -2 18 -13 7 -10 48
4 57 6 5 5 8 -3 8 -9 0 -10 5 -3 19 6 10 7 21 3 25 -10 11 -10 109 1 123 5 7
5 18 0 25 -12 19 -10 122 2 130 6 5 5 8 -4 8 -11 0 -11 3 0 16 8 10 9 18 3 22
-14 9 -13 95 0 104 7 5 7 8 -2 8 -9 0 -10 5 -3 19 6 10 7 21 3 25 -10 11 -10
109 1 123 5 7 5 18 0 25 -12 19 -11 128 2 128 7 0 7 3 0 8 -15 11 -16 65 -2
74 6 4 7 8 2 8 -6 0 -11 9 -12 21 -2 18 0 19 15 7 15 -12 16 -11 2 6 -17 22
-21 44 -9 52 5 3 6 11 2 17 -12 18 -10 121 2 129 6 5 5 8 -4 8 -11 0 -11 3 0
16 8 10 9 18 3 22 -14 9 -13 95 0 104 7 5 7 8 -2 8 -9 0 -10 5 -3 19 6 10 7
21 3 25 -10 11 -10 109 1 123 5 7 5 18 0 25 -12 19 -10 122 2 130 6 5 5 8 -4
8 -11 0 -11 3 0 16 8 10 9 18 3 22 -14 9 -13 95 0 104 7 5 7 8 -2 8 -9 0 -10
5 -3 19 6 10 7 21 3 25 -10 11 -10 109 1 123 5 7 5 18 0 25 -12 19 -11 128 2
128 7 0 7 3 0 8 -13 8 -13 22 -1 41 6 10 5 12 -2 7 -7 -4 -12 -1 -12 9 0 10 5
13 12 9 7 -5 8 -3 2 7 -11 18 -13 88 -2 95 5 3 5 11 1 17 -12 18 -10 127 2
127 6 0 5 3 -1 8 -14 8 -13 80 0 101 6 9 5 12 -1 8 -5 -3 -10 28 -11 81 -4
129 -20 320 -28 333 -4 7 -15 80 -18 114 0 11 -4 22 -8 25 -4 3 -9 15 -11 25
-2 11 -9 33 -16 49 -6 16 -9 31 -7 34 3 2 -2 11 -10 19 -8 8 -12 18 -9 23 3 4
-2 13 -10 20 -8 7 -15 18 -15 26 0 7 -13 36 -30 64 -16 28 -30 53 -30 56 0 2
-29 44 -65 92 -166 225 -409 381 -695 446 -193 45 -287 49 -1060 50 -377 1
-690 4 -697 9 -6 4 -14 4 -17 -1 -6 -9 -607 -9 -622 0 -6 4 -14 4 -18 0z"/>
<path d="M6009 1083 c-13 -16 -12 -17 4 -4 9 7 17 15 17 17 0 8 -8 3 -21 -13z"/>
<path d="M1115 880 c3 -5 8 -10 11 -10 2 0 4 5 4 10 0 6 -5 10 -11 10 -5 0 -7
-4 -4 -10z"/>
<path d="M1393 755 c0 -8 4 -12 9 -9 5 3 6 10 3 15 -9 13 -12 11 -12 -6z"/>
<path d="M1490 745 c0 -7 30 -13 34 -7 3 4 -4 9 -15 9 -10 1 -19 0 -19 -2z"/>
<path d="M1653 695 c0 -8 4 -12 9 -9 5 3 6 10 3 15 -9 13 -12 11 -12 -6z"/>
<path d="M5315 700 c3 -5 8 -10 11 -10 2 0 4 5 4 10 0 6 -5 10 -11 10 -5 0 -7
-4 -4 -10z"/>
<path d="M5376 702 c-3 -5 1 -9 9 -9 8 0 12 4 9 9 -3 4 -7 8 -9 8 -2 0 -6 -4
-9 -8z"/>
<path d="M1595 680 c3 -5 8 -10 11 -10 2 0 4 5 4 10 0 6 -5 10 -11 10 -5 0 -7
-4 -4 -10z"/>
<path d="M2015 671 c-3 -5 -2 -12 3 -15 5 -3 9 1 9 9 0 17 -3 19 -12 6z"/>
<path d="M2375 671 c-3 -5 -2 -12 3 -15 5 -3 9 1 9 9 0 17 -3 19 -12 6z"/>
<path d="M2615 671 c-3 -5 -2 -12 3 -15 5 -3 9 1 9 9 0 17 -3 19 -12 6z"/>
<path d="M2855 671 c-3 -5 -2 -12 3 -15 5 -3 9 1 9 9 0 17 -3 19 -12 6z"/>
<path d="M3095 671 c-3 -5 -2 -12 3 -15 5 -3 9 1 9 9 0 17 -3 19 -12 6z"/>
<path d="M3335 671 c-3 -5 -2 -12 3 -15 5 -3 9 1 9 9 0 17 -3 19 -12 6z"/>
<path d="M3575 671 c-3 -5 -2 -12 3 -15 5 -3 9 1 9 9 0 17 -3 19 -12 6z"/>
<path d="M4950 677 c0 -2 6 -10 14 -16 11 -9 16 -9 22 1 4 7 4 10 -1 6 -4 -4
-14 -3 -22 3 -7 6 -13 9 -13 6z"/>
<path d="M1870 659 c0 -5 5 -7 10 -4 6 3 10 8 10 11 0 2 -4 4 -10 4 -5 0 -10
-5 -10 -11z"/>
<path d="M1973 649 c-2 -23 3 -25 10 -4 4 8 3 16 -1 19 -4 3 -9 -4 -9 -15z"/>
<path d="M2335 660 c3 -5 8 -10 11 -10 2 0 4 5 4 10 0 6 -5 10 -11 10 -5 0 -7
-4 -4 -10z"/>
<path d="M2815 660 c3 -5 8 -10 11 -10 2 0 4 5 4 10 0 6 -5 10 -11 10 -5 0 -7
-4 -4 -10z"/>
<path d="M3295 660 c3 -5 8 -10 11 -10 2 0 4 5 4 10 0 6 -5 10 -11 10 -5 0 -7
-4 -4 -10z"/>
<path d="M3775 660 c3 -5 8 -10 11 -10 2 0 4 5 4 10 0 6 -5 10 -11 10 -5 0 -7
-4 -4 -10z"/>
<path d="M4076 662 c-3 -5 1 -9 9 -9 8 0 12 4 9 9 -3 4 -7 8 -9 8 -2 0 -6 -4
-9 -8z"/>
<path d="M4136 658 c3 -5 10 -6 15 -3 13 9 11 12 -6 12 -8 0 -12 -4 -9 -9z"/>
<path d="M4396 662 c-3 -5 1 -9 9 -9 8 0 12 4 9 9 -3 4 -7 8 -9 8 -2 0 -6 -4
-9 -8z"/>
<path d="M4456 658 c3 -5 10 -6 15 -3 13 9 11 12 -6 12 -8 0 -12 -4 -9 -9z"/>
<path d="M4715 659 c-3 -4 2 -6 10 -5 21 3 28 13 10 13 -9 0 -18 -4 -20 -8z"/>
<path d="M4886 658 c3 -5 10 -6 15 -3 13 9 11 12 -6 12 -8 0 -12 -4 -9 -9z"/>
<path d="M5110 660 c0 -5 5 -10 10 -10 6 0 10 5 10 10 0 6 -4 10 -10 10 -5 0
-10 -4 -10 -10z"/>
<path d="M3873 645 c0 -8 4 -12 9 -9 5 3 6 10 3 15 -9 13 -12 11 -12 -6z"/>
<path d="M4193 645 c0 -8 4 -12 9 -9 5 3 6 10 3 15 -9 13 -12 11 -12 -6z"/>
<path d="M4513 645 c0 -8 4 -12 9 -9 5 3 6 10 3 15 -9 13 -12 11 -12 -6z"/>
<path d="M5170 641 c0 -6 4 -13 10 -16 6 -3 7 1 4 9 -7 18 -14 21 -14 7z"/>
</g>
</svg>
